# xmcd
#
# Track frame offsets:
#	150
#	20545
#	35170
#	49720
#	75745
#	96670
#	112870
#	146470
#	176395
#
# Disc length: 2681 seconds
#
# Revision: 0
# Processed by: cddbd v1.5.2PL0 Copyright (c) Steve Scherf et al.
# Submitted via: EasyCDDAExtractor 9.0.0.1
#
DISCID=710a7709
DTITLE=Kiss - Olympen Lund Sweden 24-10-84 Disc 2
DYEAR=1984
DGENRE=Hard Rock
TTITLE0=I've Had Enough (Into The Fire)
TTITLE1=Gene Simmons Bass Solo
TTITLE2=I Love It Loud
TTITLE3=I Still Love You
TTITLE4=Creatures Of The Night
TTITLE5=Love Gun
TTITLE6=Rock And Roll All Nite
TTITLE7=Lick It Up
TTITLE8=Black Diamond 
EXTD=
EXTT0=
EXTT1=
EXTT2=
EXTT3=
EXTT4=
EXTT5=
EXTT6=
EXTT7=
EXTT8=
PLAYORDER=
